<svg xmlns="http://www.w3.org/2000/svg" viewBox="0 0 1280 640" width="1280" height="640" role="img" aria-label="Coronalis social preview">
  <defs>
    <radialGradient id="sbg" cx="50%" cy="40%" r="90%">
      <stop offset="0%" stop-color="#2a1848"/>
      <stop offset="55%" stop-color="#120a24"/>
      <stop offset="100%" stop-color="#05030d"/>
    </radialGradient>
    <linearGradient id="sgold" x1="0" y1="0" x2="1" y2="1">
      <stop offset="0%" stop-color="#f6e7a8"/>
      <stop offset="100%" stop-color="#c9a227"/>
    </linearGradient>
    <linearGradient id="svio" x1="0" y1="0" x2="1" y2="0">
      <stop offset="0%" stop-color="#7c3aed"/>
      <stop offset="100%" stop-color="#e879f9"/>
    </linearGradient>
    <clipPath id="sclip"><circle cx="220" cy="340" r="150"/></clipPath>
    <style>
      .st{animation:tw 3s ease-in-out infinite}
      .sw{animation:sr 4s linear infinite;transform-origin:220px 340px}
      .pu{animation:pu 3s ease-out infinite}
      .wv{stroke-dasharray:8 12;animation:ds 7s linear infinite}
      .sh{animation:dr 20s linear infinite}
      @keyframes tw{0%,100%{opacity:.4}50%{opacity:1}}
      @keyframes sr{to{transform:rotate(360deg)}}
      @keyframes pu{0%{r:10;opacity:.7}100%{r:200;opacity:0}}
      @keyframes ds{to{stroke-dashoffset:-40}}
      @keyframes dr{0%{transform:translateX(0)}100%{transform:translateX(60px)}}
    </style>
  </defs>
  <rect width="1280" height="640" fill="url(#sbg)"/>
  <g fill="#fff" opacity=".65">
    <circle cx="100" cy="80" r="1.5" class="st"/>
    <circle cx="1100" cy="120" r="2" fill="#f6e7a8" class="st"/>
    <circle cx="600" cy="60" r="1" class="st"/>
    <circle cx="950" cy="500" r="1.2" class="st"/>
  </g>
  <circle cx="220" cy="340" r="155" fill="rgba(74,222,128,.08)" stroke="rgba(74,222,128,.35)" stroke-width="2"/>
  <circle cx="220" cy="340" r="110" fill="none" stroke="rgba(74,222,128,.2)"/>
  <circle cx="220" cy="340" r="60" fill="none" stroke="rgba(74,222,128,.15)"/>
  <g clip-path="url(#sclip)"><path class="sw" d="M220 340 L220 190 A150 150 0 0 1 370 340 Z" fill="url(#svio)" opacity=".4"/></g>
  <circle cx="280" cy="290" r="5" fill="#4ade80" class="st"/>
  <circle cx="170" cy="380" r="4" fill="#e879f9" class="st"/>
  <g transform="translate(420 340)">
    <circle class="pu" cx="0" cy="0" r="10" fill="none" stroke="#e879f9" stroke-width="2"/>
    <circle class="pu" cx="0" cy="0" r="10" fill="none" stroke="#d4af37" stroke-width="1.5" style="animation-delay:1.2s"/>
  </g>
  <path class="wv" d="M400 480 C600 320,850 360,1200 460" fill="none" stroke="url(#svio)" stroke-width="2.5" opacity=".5"/>
  <g class="sh" transform="translate(700 180)">
    <path d="M0 12 L40 0 L46 10 L40 22 L0 12Z" fill="#1a142c" stroke="#e879f9" stroke-width="1.2"/>
    <circle cx="44" cy="11" r="3" fill="#4ade80"/>
  </g>
  <g class="sh" transform="translate(980 420) scale(-1,1)">
    <path d="M0 10 L36 2 L42 10 L36 18 L0 10Z" fill="#1a142c" stroke="url(#sgold)" stroke-width="1"/>
  </g>
  <g transform="translate(1020 280) scale(1.1)">
    <path d="M0 20 Q60 65 120 20 C105 -5 15 -5 0 20Z" fill="url(#sgold)"/>
    <line x1="60" y1="20" x2="60" y2="-18" stroke="url(#sgold)" stroke-width="2"/>
    <circle cx="60" cy="-18" r="7" fill="#e879f9"/>
  </g>
  <text x="72" y="100" font-family="Segoe UI,Arial" font-size="22" font-weight="700" fill="#e879f9" letter-spacing="6">CORONALIS</text>
  <text x="68" y="200" font-family="Segoe UI,Arial" font-size="88" font-weight="800" fill="url(#sgold)">Coronalis</text>
  <text x="72" y="260" font-family="Segoe UI,Arial" font-size="32" fill="#e2e8f0">Addon Slimefun &#183; radioastronomía &#183; XP</text>
  <text x="72" y="320" font-family="Segoe UI,Arial" font-size="24" fill="#94a3b8">Radar &#183; correlación de fase &#183; cielo profundo</text>
  <text x="72" y="560" font-family="Consolas,monospace" font-size="20" fill="#4ade80">JackStar6677 &#183; ARRAY ONLINE</text>
</svg>
